<svg xmlns="http://www.w3.org/2000/svg" viewBox="0 0 400 300">
  <defs>
    <linearGradient id="bg" x1="0%" y1="0%" x2="100%" y2="100%">
      <stop offset="0%" style="stop-color:#1a0f2e"/>
      <stop offset="100%" style="stop-color:#050510"/>
    </linearGradient>
  </defs>
  <rect width="400" height="300" fill="url(#bg)"/>
  <!-- 5x5 Grid -->
  <g transform="translate(75,40)">
    <!-- Row 1 -->
    <rect x="0" y="0" width="45" height="32" rx="4" fill="rgba(68,255,136,0.15)" stroke="rgba(68,255,136,0.5)" stroke-width="1.5"/>
    <rect x="52" y="0" width="45" height="32" rx="4" fill="rgba(255,255,255,0.05)" stroke="rgba(255,255,255,0.12)" stroke-width="1"/>
    <rect x="104" y="0" width="45" height="32" rx="4" fill="rgba(68,255,136,0.15)" stroke="rgba(68,255,136,0.5)" stroke-width="1.5"/>
    <rect x="156" y="0" width="45" height="32" rx="4" fill="rgba(255,255,255,0.05)" stroke="rgba(255,255,255,0.12)" stroke-width="1"/>
    <rect x="208" y="0" width="45" height="32" rx="4" fill="rgba(255,255,255,0.05)" stroke="rgba(255,255,255,0.12)" stroke-width="1"/>
    <!-- Row 2 -->
    <rect x="0" y="40" width="45" height="32" rx="4" fill="rgba(255,255,255,0.05)" stroke="rgba(255,255,255,0.12)" stroke-width="1"/>
    <rect x="52" y="40" width="45" height="32" rx="4" fill="rgba(68,255,136,0.15)" stroke="rgba(68,255,136,0.5)" stroke-width="1.5"/>
    <rect x="104" y="40" width="45" height="32" rx="4" fill="rgba(255,255,255,0.05)" stroke="rgba(255,255,255,0.12)" stroke-width="1"/>
    <rect x="156" y="40" width="45" height="32" rx="4" fill="rgba(255,255,255,0.05)" stroke="rgba(255,255,255,0.12)" stroke-width="1"/>
    <rect x="208" y="40" width="45" height="32" rx="4" fill="rgba(68,255,136,0.15)" stroke="rgba(68,255,136,0.5)" stroke-width="1.5"/>
    <!-- Row 3 -->
    <rect x="0" y="80" width="45" height="32" rx="4" fill="rgba(255,255,255,0.05)" stroke="rgba(255,255,255,0.12)" stroke-width="1"/>
    <rect x="52" y="80" width="45" height="32" rx="4" fill="rgba(255,255,255,0.05)" stroke="rgba(255,255,255,0.12)" stroke-width="1"/>
    <rect x="104" y="80" width="45" height="32" rx="4" fill="rgba(255,50,50,0.2)" stroke="rgba(255,50,50,0.6)" stroke-width="2"/>
    <rect x="156" y="80" width="45" height="32" rx="4" fill="rgba(68,255,136,0.15)" stroke="rgba(68,255,136,0.5)" stroke-width="1.5"/>
    <rect x="208" y="80" width="45" height="32" rx="4" fill="rgba(255,255,255,0.05)" stroke="rgba(255,255,255,0.12)" stroke-width="1"/>
    <!-- Row 4 -->
    <rect x="0" y="120" width="45" height="32" rx="4" fill="rgba(68,255,136,0.15)" stroke="rgba(68,255,136,0.5)" stroke-width="1.5"/>
    <rect x="52" y="120" width="45" height="32" rx="4" fill="rgba(255,255,255,0.05)" stroke="rgba(255,255,255,0.12)" stroke-width="1"/>
    <rect x="104" y="120" width="45" height="32" rx="4" fill="rgba(255,255,255,0.05)" stroke="rgba(255,255,255,0.12)" stroke-width="1"/>
    <rect x="156" y="120" width="45" height="32" rx="4" fill="rgba(255,255,255,0.05)" stroke="rgba(255,255,255,0.12)" stroke-width="1"/>
    <rect x="208" y="120" width="45" height="32" rx="4" fill="rgba(68,255,136,0.15)" stroke="rgba(68,255,136,0.5)" stroke-width="1.5"/>
    <!-- Row 5 -->
    <rect x="0" y="160" width="45" height="32" rx="4" fill="rgba(255,255,255,0.05)" stroke="rgba(255,255,255,0.12)" stroke-width="1"/>
    <rect x="52" y="160" width="45" height="32" rx="4" fill="rgba(68,255,136,0.15)" stroke="rgba(68,255,136,0.5)" stroke-width="1.5"/>
    <rect x="104" y="160" width="45" height="32" rx="4" fill="rgba(255,255,255,0.05)" stroke="rgba(255,255,255,0.12)" stroke-width="1"/>
    <rect x="156" y="160" width="45" height="32" rx="4" fill="rgba(255,255,255,0.05)" stroke="rgba(255,255,255,0.12)" stroke-width="1"/>
    <rect x="208" y="160" width="45" height="32" rx="4" fill="rgba(255,255,255,0.05)" stroke="rgba(255,255,255,0.12)" stroke-width="1"/>
    <!-- Skull on doom card -->
    <text x="126" y="101" font-size="16" text-anchor="middle" fill="#ff4444">&#x2620;</text>
  </g>
  <!-- Title -->
  <text x="200" y="250" font-family="Segoe UI, system-ui, sans-serif" font-size="22" font-weight="800" fill="#ffffff" text-anchor="middle">WORDMASTER</text>
  <text x="200" y="275" font-family="Segoe UI, system-ui, sans-serif" font-size="11" fill="rgba(255,255,255,0.4)" text-anchor="middle">25 Words &#x2022; 8 Safe &#x2022; 1 Doom</text>
</svg>